<svg width="91" height="90" viewBox="0 0 91 90" fill="none" xmlns="http://www.w3.org/2000/svg">
  <g clipPath="url(#clip0_2211_36031)">
  <path d="M13.9756 55.6555C6.72484 57.4682 4.47131 59.808 0.471313 64.308V76.3201H13.9756V55.6555Z" fill="url(#paint0_radial_2211_36031)"/>
  <path d="M77.4195 62.1811C69.0812 62.5437 69.8063 61.0935 64.0057 57.8307V80.308H90.4709V74.8699C88.2957 68.3443 85.7579 61.8186 77.4195 62.1811Z" fill="url(#paint1_radial_2211_36031)"/>
  <path opacity="0.4" d="M69.4414 31.583C69.4414 25.3474 64.3659 20.2719 58.1302 20.2719C51.8946 20.2719 46.8191 25.3474 46.8191 31.583C46.8191 37.8186 51.8946 42.8942 58.1302 42.8942C64.3659 42.8942 69.4414 37.8186 69.4414 31.583Z" fill="white"/>
  <path opacity="0.1" d="M87.7144 31.583C87.7144 15.2689 74.4455 2 58.1314 2C41.7447 2 28.5483 15.2689 28.5483 31.583C28.5483 47.8972 41.8172 61.166 58.1314 61.166C74.4455 61.2385 87.7144 47.9697 87.7144 31.583Z" fill="white"/>
  <path opacity="0.2" d="M75.0245 31.583C75.0245 22.2296 67.4838 14.6888 58.1303 14.6888C48.7769 14.6888 41.2361 22.3021 41.2361 31.583C41.2361 40.864 48.7769 48.4772 58.1303 48.4772C67.4838 48.4772 75.0245 40.9365 75.0245 31.583Z" fill="white"/>
  <path opacity="0.6" d="M14.0472 29.6253L30.7239 35.4259V77.2627L14.0472 71.3896V29.6253Z" fill="white"/>
  <path opacity="0.3" d="M30.7228 35.4259L48.1246 29.6253V71.3896L30.7228 77.2627V35.4259Z" fill="white"/>
  <path opacity="0.6" d="M48.1263 29.6253L64.078 35.4259V77.2627L48.1263 71.3896V29.6253Z" fill="white"/>
  <path d="M62.4825 73.7823V74.5074L61.83 74.2899" stroke="white" strokeMiterlimit="10"/>
  <path d="M60.4518 73.7823L47.9081 69.3594L30.4338 75.2324L17.2374 70.592" stroke="white" strokeMiterlimit="10" strokeDasharray="2 2"/>
  <path d="M16.5132 70.3745L15.8606 70.1569V69.4319" stroke="white" strokeMiterlimit="10"/>
  <path d="M15.8606 67.9092V33.7582" stroke="white" strokeMiterlimit="10" strokeDasharray="2.01 2.01"/>
  <path d="M15.8606 33.0332V32.3081L16.5132 32.5256" stroke="white" strokeMiterlimit="10"/>
  <path d="M17.8903 33.0332L30.434 37.3836L47.9083 31.583L61.1047 36.296" stroke="white" strokeMiterlimit="10" strokeDasharray="2 2"/>
  <path d="M61.83 36.5135L62.4825 36.731V37.4561" stroke="white" strokeMiterlimit="10"/>
  <path d="M62.4827 38.9062V73.0572" stroke="white" strokeMiterlimit="10" strokeDasharray="2 2"/>
  <path d="M52.0417 42.9667L51.8967 44.5618L48.1263 43.9818V44.9969L51.6792 45.5044L49.7215 56.8881L48.1263 56.2355V57.1781L52.4043 58.9908L61.1052 70.157L61.7577 76.4651L62.7003 76.7551L61.9753 70.0119L52.6218 58.1207L50.5191 57.2506L53.0568 43.4017L51.9692 31.148L51.0266 30.7854L52.0417 42.9667Z" fill="white"/>
  <path opacity="0.7" d="M30.7228 62.6887V63.6313L48.1246 57.0331V56.0905L30.7228 62.6887Z" fill="white"/>
  <path opacity="0.7" d="M34.7107 53.6253L48.1246 44.9244V43.9093L34.4932 52.7552L30.7228 54.7854V55.8005L34.7107 53.6253Z" fill="white"/>
  <path d="M19.9203 45.2869L22.7481 52.1751L23.4007 60.2959L14.0472 60.6585V61.7461L23.4732 61.3111V61.4561L30.7239 63.6313V62.6887L24.4883 60.731L24.1258 54.7129L30.7239 55.8005V54.7854L23.9808 53.7703L23.8357 52.3201L20.7904 45.2144L19.9203 45.2869Z" fill="white"/>
  <path d="M64.0789 35.4259V36.8761C65.529 35.4259 66.1816 33.6132 66.1816 31.583C66.1816 27.015 62.5562 23.3172 58.0608 23.3172C53.9278 23.3172 50.375 26.3625 49.7949 30.2779L64.0789 35.4259Z" fill="white"/>
  <path opacity="0.3" fillRule="evenodd" clipRule="evenodd" d="M13.9757 62.8331V61.7455L20.067 67.8367L19.7044 68.1268L17.6742 66.024L17.0217 65.879L13.9757 62.8331ZM13.9757 64.9611V64.2108L15.2813 65.5165L14.4838 65.3715L13.9757 64.9611ZM64.0058 68.2015V69.286L37.0339 42.3141L37.7589 42.0241L64.0058 68.2015ZM64.0058 65.8059V66.8892L38.7738 41.589L39.4989 41.299L64.0058 65.8059ZM64.0058 63.4144V64.4295L40.5853 41.009L40.8028 40.7915L41.2379 40.6464L64.0058 63.4144ZM64.0058 60.9514V62.0349L42.9799 41.009L43.4875 40.5014L64.0058 60.9514ZM64.0058 58.4831V59.5707L45.4441 41.009L46.0241 40.5014L64.0058 58.4831ZM64.0058 56.0895V57.1046L47.9102 41.009L48.4177 40.5014L64.0058 56.0895ZM64.0058 53.6243V54.7119L58.8587 49.5649L62.5566 52.1751L64.0058 53.6243ZM35.2939 42.9667L62.4842 70.157L63.2817 69.9394L36.019 42.6767L35.2939 42.9667ZM33.5539 43.6918L34.2065 43.4017L34.279 43.3292L61.3967 70.447L60.5992 70.737L33.5539 43.6918ZM31.9588 44.4893L58.714 71.2446L59.4391 71.027L59.5116 70.9545L32.6838 44.1993L31.9588 44.4893ZM56.5388 71.5346L30.3636 45.3594L31.0887 44.9969L57.0463 70.9545L56.5388 71.5346ZM43.0533 62.9062L25.6516 45.4319L26.5942 45.2869L51.1742 69.8669L48.999 68.7793L45.8086 65.589L43.7059 62.5437L43.0533 62.9062ZM23.62 45.7945L41.5293 63.7763L42.2544 63.4137L24.4901 45.6494L23.62 45.7945ZM40.0789 64.7189L21.517 46.157L22.4596 46.012L40.7315 64.2838L40.0789 64.7189ZM20.2849 47.3896L38.5568 65.589L39.2093 65.2264L20.5024 46.5195L20.2849 47.3896ZM36.092 65.5165L19.8504 49.3473L20.0679 48.4772L37.6872 66.0965L37.3247 66.3141L36.092 65.5165ZM18.6898 50.5799L32.2486 64.1388L32.7562 63.6313L19.2698 50.0724L18.6898 50.5799ZM31.0167 65.3715L17.3128 51.6676L17.8929 51.16L31.5968 64.8639L31.0167 65.3715ZM16.9498 53.6978L29.8561 66.6041L30.3636 66.024L16.9498 52.6102V53.6978ZM28.6235 67.7642L16.9498 56.0905V55.0754L29.131 67.2567L28.6235 67.7642ZM16.9498 58.5558L23.693 65.299L24.128 65.0089L25.1431 65.734L16.9498 57.4682V58.5558ZM22.315 66.3141L15.6443 59.6434L16.2969 59.2083L22.8951 65.879L22.315 66.3141ZM14.194 60.586L20.8647 67.3292L21.5173 66.8941L14.8466 60.2234L14.194 60.586ZM28.7666 46.157L53.9267 71.2445L54.2167 71.4621L54.6517 70.9545L29.4917 45.7945L28.7666 46.157ZM54.8708 45.5769L50.3029 41.009L50.8829 40.5014L54.5808 44.1993L54.8708 45.5769ZM52.7671 41.009L54.1447 42.3866L53.8547 41.0815L53.1296 40.5739L52.7671 41.009Z" fill="white"/>
  </g>
  <defs>
  <radialGradient id="paint0_radial_2211_36031" cx="0" cy="0" r="1" gradientUnits="userSpaceOnUse" gradientTransform="translate(45.8788 50.2174) rotate(96.0322) scale(22.9094 98.7127)">
  <stop stopColor="white"/>
  <stop offset="1" stopColor="white" stopOpacity="0"/>
  </radialGradient>
  <radialGradient id="paint1_radial_2211_36031" cx="0" cy="0" r="1" gradientUnits="userSpaceOnUse" gradientTransform="translate(45.8788 50.2174) rotate(96.0322) scale(22.9094 98.7127)">
  <stop stopColor="white"/>
  <stop offset="1" stopColor="white" stopOpacity="0"/>
  </radialGradient>
  <clipPath id="clip0_2211_36031">
  <rect width="90" height="90" fill="white" transform="translate(0.471313)"/>
  </clipPath>
  </defs>
      </svg>  